<svg xmlns="http://www.w3.org/2000/svg" id="Calque_1" viewBox="137.86 201.47 895.33 652.36"><circle cx="154.43" cy="618.42" r="16.57" style="fill:#fff;"></circle><circle cx="202.33" cy="618.42" r="16.57" style="fill:#fff;"></circle><circle cx="250.23" cy="618.42" r="16.57" style="fill:#fff;"></circle><circle cx="298.12" cy="618.42" r="16.57" style="fill:#fff;"></circle><circle cx="346.02" cy="618.42" r="16.57" style="fill:#fff;"></circle><circle cx="393.92" cy="618.42" r="16.57" style="fill:#fff;"></circle><circle cx="441.82" cy="618.42" r="16.57" style="fill:#fff;"></circle><circle cx="489.72" cy="618.42" r="16.57" style="fill:#fff;"></circle><circle cx="537.62" cy="618.42" r="16.57" style="fill:#fff;"></circle><circle cx="585.52" cy="618.42" r="16.57" style="fill:#fff;"></circle><circle cx="633.42" cy="618.42" r="16.57" style="fill:#fff;"></circle><circle cx="681.32" cy="618.42" r="16.57" style="fill:#fff;"></circle><circle cx="729.22" cy="618.42" r="16.57" style="fill:#fff;"></circle><circle cx="777.12" cy="618.42" r="16.57" style="fill:#fff;"></circle><circle cx="825.02" cy="618.42" r="16.57" style="fill:#fff;"></circle><circle cx="872.92" cy="618.42" r="16.57" style="fill:#fff;"></circle><circle cx="154.43" cy="658.41" r="16.57" style="fill:#fff;"></circle><circle cx="202.33" cy="658.41" r="16.57" style="fill:#fff;"></circle><circle cx="250.23" cy="658.41" r="16.57" style="fill:#fff;"></circle><circle cx="298.12" cy="658.41" r="16.57" style="fill:#fff;"></circle><circle cx="346.02" cy="658.41" r="16.57" style="fill:#fff;"></circle><circle cx="393.92" cy="658.41" r="16.57" style="fill:#fff;"></circle><circle cx="441.82" cy="658.41" r="16.57" style="fill:#fff;"></circle><circle cx="489.72" cy="658.41" r="16.57" style="fill:#fff;"></circle><circle cx="537.62" cy="658.41" r="16.57" style="fill:#fff;"></circle><circle cx="585.52" cy="658.41" r="16.57" style="fill:#fff;"></circle><circle cx="633.42" cy="658.41" r="16.57" style="fill:#fff;"></circle><circle cx="681.32" cy="658.41" r="16.57" style="fill:#fff;"></circle><circle cx="154.43" cy="703.12" r="16.57" style="fill:#fff;"></circle><circle cx="202.33" cy="703.12" r="16.57" style="fill:#fff;"></circle><circle cx="250.23" cy="703.12" r="16.57" style="fill:#fff;"></circle><circle cx="298.12" cy="703.12" r="16.57" style="fill:#fff;"></circle><circle cx="346.02" cy="703.12" r="16.57" style="fill:#fff;"></circle><circle cx="393.92" cy="703.12" r="16.57" style="fill:#fff;"></circle><circle cx="441.82" cy="703.12" r="16.57" style="fill:#fff;"></circle><circle cx="154.43" cy="747.84" r="16.57" style="fill:#fff;"></circle><circle cx="202.33" cy="747.84" r="16.57" style="fill:#fff;"></circle><circle cx="250.23" cy="747.84" r="16.57" style="fill:#fff;"></circle><circle cx="154.43" cy="792.55" r="16.57" style="fill:#fff;"></circle><circle cx="154.43" cy="837.26" r="16.57" style="fill:#fff;"></circle><circle cx="202.33" cy="792.55" r="16.57" style="fill:#fff;"></circle><circle cx="250.23" cy="792.55" r="16.57" style="fill:#fff;"></circle><circle cx="298.12" cy="747.84" r="16.57" style="fill:#fff;"></circle><circle cx="346.02" cy="747.84" r="16.57" style="fill:#fff;"></circle><circle cx="393.92" cy="747.84" r="16.57" style="fill:#fff;"></circle><circle cx="441.82" cy="747.84" r="16.57" style="fill:#fff;"></circle><circle cx="489.72" cy="703.12" r="16.57" style="fill:#fff;"></circle><circle cx="537.62" cy="703.12" r="16.57" style="fill:#fff;"></circle><circle cx="585.52" cy="703.12" r="16.57" style="fill:#fff;"></circle><circle cx="633.42" cy="703.12" r="16.57" style="fill:#fff;"></circle><circle cx="681.32" cy="703.12" r="16.57" style="fill:#fff;"></circle><circle cx="729.22" cy="658.41" r="16.57" style="fill:#fff;"></circle><circle cx="777.12" cy="658.41" r="16.57" style="fill:#fff;"></circle><circle cx="825.02" cy="658.41" r="16.57" style="fill:#fff;"></circle><circle cx="872.92" cy="658.41" r="16.57" style="fill:#fff;"></circle><circle cx="1016.62" cy="829.11" r="16.57" style="fill:#fff;"></circle><circle cx="968.72" cy="829.11" r="16.57" style="fill:#fff;"></circle><circle cx="920.82" cy="829.11" r="16.57" style="fill:#fff;"></circle><circle cx="872.92" cy="829.11" r="16.57" style="fill:#fff;"></circle><circle cx="825.02" cy="829.11" r="16.57" style="fill:#fff;"></circle><circle cx="777.12" cy="829.11" r="16.57" style="fill:#fff;"></circle><circle cx="729.22" cy="829.11" r="16.57" style="fill:#fff;"></circle><circle cx="681.32" cy="829.11" r="16.57" style="fill:#fff;"></circle><circle cx="633.42" cy="829.11" r="16.57" style="fill:#fff;"></circle><circle cx="585.52" cy="829.11" r="16.57" style="fill:#fff;"></circle><circle cx="537.62" cy="829.11" r="16.57" style="fill:#fff;"></circle><circle cx="489.72" cy="829.11" r="16.57" style="fill:#fff;"></circle><circle cx="441.82" cy="829.11" r="16.57" style="fill:#fff;"></circle><circle cx="393.92" cy="829.11" r="16.57" style="fill:#fff;"></circle><circle cx="346.02" cy="829.11" r="16.57" style="fill:#fff;"></circle><circle cx="298.12" cy="829.11" r="16.57" style="fill:#fff;"></circle><circle cx="1016.62" cy="789.12" r="16.57" style="fill:#fff;"></circle><circle cx="968.72" cy="789.12" r="16.57" style="fill:#fff;"></circle><circle cx="920.82" cy="789.12" r="16.57" style="fill:#fff;"></circle><circle cx="872.92" cy="789.12" r="16.57" style="fill:#fff;"></circle><circle cx="825.02" cy="789.12" r="16.57" style="fill:#fff;"></circle><circle cx="777.12" cy="789.12" r="16.57" style="fill:#fff;"></circle><circle cx="729.22" cy="789.12" r="16.57" style="fill:#fff;"></circle><circle cx="681.32" cy="789.12" r="16.57" style="fill:#fff;"></circle><circle cx="633.42" cy="789.12" r="16.57" style="fill:#fff;"></circle><circle cx="585.52" cy="789.12" r="16.57" style="fill:#fff;"></circle><circle cx="537.62" cy="789.12" r="16.57" style="fill:#fff;"></circle><circle cx="489.72" cy="789.12" r="16.57" style="fill:#fff;"></circle><circle cx="1016.62" cy="744.41" r="16.57" style="fill:#fff;"></circle><circle cx="968.72" cy="744.41" r="16.57" style="fill:#fff;"></circle><circle cx="920.82" cy="744.41" r="16.57" style="fill:#fff;"></circle><circle cx="872.92" cy="744.41" r="16.57" style="fill:#fff;"></circle><circle cx="825.02" cy="744.41" r="16.57" style="fill:#fff;"></circle><circle cx="777.12" cy="744.41" r="16.57" style="fill:#fff;"></circle><circle cx="729.22" cy="744.41" r="16.57" style="fill:#fff;"></circle><circle cx="1016.62" cy="699.7" r="16.57" style="fill:#fff;"></circle><circle cx="968.72" cy="699.7" r="16.57" style="fill:#fff;"></circle><circle cx="920.82" cy="699.7" r="16.57" style="fill:#fff;"></circle><circle cx="1016.62" cy="654.99" r="16.57" style="fill:#fff;"></circle><circle cx="1016.62" cy="610.28" r="16.57" style="fill:#fff;"></circle><circle cx="968.72" cy="654.99" r="16.57" style="fill:#fff;"></circle><circle cx="920.82" cy="654.99" r="16.57" style="fill:#fff;"></circle><circle cx="872.92" cy="699.7" r="16.57" style="fill:#fff;"></circle><circle cx="825.02" cy="699.7" r="16.57" style="fill:#fff;"></circle><circle cx="777.12" cy="699.7" r="16.57" style="fill:#fff;"></circle><circle cx="729.22" cy="699.7" r="16.57" style="fill:#fff;"></circle><circle cx="681.32" cy="744.41" r="16.57" style="fill:#fff;"></circle><circle cx="633.42" cy="744.41" r="16.57" style="fill:#fff;"></circle><circle cx="585.52" cy="744.41" r="16.57" style="fill:#fff;"></circle><circle cx="537.62" cy="744.41" r="16.57" style="fill:#fff;"></circle><circle cx="489.72" cy="744.41" r="16.57" style="fill:#fff;"></circle><circle cx="441.82" cy="789.12" r="16.57" style="fill:#fff;"></circle><circle cx="393.92" cy="789.12" r="16.57" style="fill:#fff;"></circle><circle cx="346.02" cy="789.12" r="16.57" style="fill:#fff;"></circle><circle cx="298.12" cy="789.12" r="16.57" style="fill:#fff;"></circle><circle cx="1016.62" cy="565.57" r="16.57" style="fill:#fff;"></circle><circle cx="968.72" cy="565.57" r="16.57" style="fill:#fff;"></circle><circle cx="920.82" cy="565.57" r="16.57" style="fill:#fff;"></circle><circle cx="872.92" cy="565.57" r="16.57" style="fill:#fff;"></circle><circle cx="825.02" cy="565.57" r="16.57" style="fill:#fff;"></circle><circle cx="777.12" cy="565.57" r="16.57" style="fill:#fff;"></circle><circle cx="729.22" cy="565.57" r="16.57" style="fill:#fff;"></circle><circle cx="681.32" cy="565.57" r="16.57" style="fill:#fff;"></circle><circle cx="633.42" cy="565.57" r="16.57" style="fill:#fff;"></circle><circle cx="1016.62" cy="525.58" r="16.57" style="fill:#fff;"></circle><circle cx="968.72" cy="525.58" r="16.57" style="fill:#fff;"></circle><circle cx="920.82" cy="525.58" r="16.57" style="fill:#fff;"></circle><circle cx="872.92" cy="525.58" r="16.57" style="fill:#fff;"></circle><circle cx="825.02" cy="525.58" r="16.57" style="fill:#fff;"></circle><circle cx="777.12" cy="525.58" r="16.57" style="fill:#fff;"></circle><circle cx="729.22" cy="525.58" r="16.57" style="fill:#fff;"></circle><circle cx="681.32" cy="525.58" r="16.57" style="fill:#fff;"></circle><circle cx="633.42" cy="525.58" r="16.57" style="fill:#fff;"></circle><circle cx="1016.62" cy="480.87" r="16.57" style="fill:#fff;"></circle><circle cx="968.72" cy="480.87" r="16.57" style="fill:#fff;"></circle><circle cx="920.82" cy="480.87" r="16.57" style="fill:#fff;"></circle><circle cx="872.92" cy="480.87" r="16.57" style="fill:#fff;"></circle><circle cx="825.02" cy="480.87" r="16.57" style="fill:#fff;"></circle><circle cx="777.12" cy="480.87" r="16.57" style="fill:#fff;"></circle><circle cx="729.22" cy="480.87" r="16.57" style="fill:#fff;"></circle><circle cx="681.32" cy="480.87" r="16.57" style="fill:#fff;"></circle><circle cx="633.42" cy="480.87" r="16.57" style="fill:#fff;"></circle><circle cx="872.92" cy="436.88" r="16.57" style="fill:#fff;"></circle><circle cx="825.02" cy="436.88" r="16.57" style="fill:#fff;"></circle><circle cx="777.12" cy="436.88" r="16.57" style="fill:#fff;"></circle><circle cx="729.22" cy="436.88" r="16.57" style="fill:#fff;"></circle><circle cx="872.92" cy="396.89" r="16.57" style="fill:#fff;"></circle><circle cx="825.02" cy="396.89" r="16.57" style="fill:#fff;"></circle><circle cx="777.12" cy="396.89" r="16.57" style="fill:#fff;"></circle><circle cx="729.22" cy="396.89" r="16.57" style="fill:#fff;"></circle><circle cx="872.92" cy="352.18" r="16.57" style="fill:#fff;"></circle><circle cx="825.02" cy="352.18" r="16.57" style="fill:#fff;"></circle><circle cx="777.12" cy="352.18" r="16.57" style="fill:#fff;"></circle><circle cx="729.22" cy="352.18" r="16.57" style="fill:#fff;"></circle><circle cx="872.92" cy="307.46" r="16.57" style="fill:#fff;"></circle><circle cx="825.02" cy="307.46" r="16.57" style="fill:#fff;"></circle><circle cx="777.12" cy="307.46" r="16.57" style="fill:#fff;"></circle><circle cx="872.92" cy="262.75" r="16.57" style="fill:#fff;"></circle><circle cx="872.92" cy="218.04" r="16.57" style="fill:#fff;"></circle><circle cx="825.02" cy="262.75" r="16.57" style="fill:#fff;"></circle><circle cx="777.12" cy="262.75" r="16.57" style="fill:#fff;"></circle><circle cx="729.22" cy="307.46" r="16.57" style="fill:#fff;"></circle><circle cx="729.22" cy="226.19" r="16.57" style="fill:#fff;"></circle><circle cx="729.22" cy="266.18" r="16.57" style="fill:#fff;"></circle><circle cx="454.58" cy="427.36" r="16.57" style="fill:#fff;"></circle><circle cx="454.58" cy="379.46" r="16.57" style="fill:#fff;"></circle><circle cx="454.58" cy="331.56" r="16.57" style="fill:#fff;"></circle><circle cx="494.57" cy="427.36" r="16.57" style="fill:#fff;"></circle><circle cx="494.57" cy="379.46" r="16.57" style="fill:#fff;"></circle><circle cx="494.57" cy="331.56" r="16.57" style="fill:#fff;"></circle><circle cx="539.28" cy="427.36" r="16.57" style="fill:#fff;"></circle><circle cx="539.28" cy="379.46" r="16.57" style="fill:#fff;"></circle><circle cx="539.28" cy="331.56" r="16.57" style="fill:#fff;"></circle><circle cx="583.99" cy="427.36" r="16.57" style="fill:#fff;"></circle><circle cx="583.99" cy="379.46" r="16.57" style="fill:#fff;"></circle><circle cx="583.99" cy="331.56" r="16.57" style="fill:#fff;"></circle><circle cx="633.42" cy="429.5" r="16.57" style="fill:#fff;"></circle><circle cx="633.42" cy="381.6" r="16.57" style="fill:#fff;"></circle><circle cx="633.42" cy="333.7" r="16.57" style="fill:#fff;"></circle><circle cx="414.59" cy="331.56" r="16.57" style="fill:#fff;"></circle><circle cx="414.59" cy="379.46" r="16.57" style="fill:#fff;"></circle><circle cx="414.59" cy="427.36" r="16.57" style="fill:#fff;"></circle><circle cx="414.59" cy="475.26" r="16.57" style="fill:#fff;"></circle><circle cx="414.59" cy="523.16" r="16.57" style="fill:#fff;"></circle><circle cx="414.59" cy="571.06" r="16.57" style="fill:#fff;"></circle></svg>