<svg xmlns="http://www.w3.org/2000/svg" id="Calque_1" viewBox="186.41 254.66 667 512.8"><circle cx="198.76" cy="273.07" r="12.35" style="fill:#fff;"></circle><circle cx="234.44" cy="273.07" r="12.35" style="fill:#fff;"></circle><circle cx="270.13" cy="273.07" r="12.35" style="fill:#fff;"></circle><circle cx="305.81" cy="273.07" r="12.35" style="fill:#fff;"></circle><circle cx="341.49" cy="273.07" r="12.35" style="fill:#fff;"></circle><circle cx="377.18" cy="273.07" r="12.35" style="fill:#fff;"></circle><circle cx="412.86" cy="273.07" r="12.35" style="fill:#fff;"></circle><circle cx="448.54" cy="273.07" r="12.35" style="fill:#fff;"></circle><circle cx="484.23" cy="273.07" r="12.35" style="fill:#fff;"></circle><circle cx="519.91" cy="273.07" r="12.35" style="fill:#fff;"></circle><circle cx="555.59" cy="273.07" r="12.35" style="fill:#fff;"></circle><circle cx="591.28" cy="273.07" r="12.35" style="fill:#fff;"></circle><circle cx="626.96" cy="273.07" r="12.35" style="fill:#fff;"></circle><circle cx="662.64" cy="273.07" r="12.35" style="fill:#fff;"></circle><circle cx="698.33" cy="273.07" r="12.35" style="fill:#fff;"></circle><circle cx="734.01" cy="273.07" r="12.35" style="fill:#fff;"></circle><circle cx="198.76" cy="302.86" r="12.35" style="fill:#fff;"></circle><circle cx="234.44" cy="302.86" r="12.35" style="fill:#fff;"></circle><circle cx="270.13" cy="302.86" r="12.35" style="fill:#fff;"></circle><circle cx="305.81" cy="302.86" r="12.35" style="fill:#fff;"></circle><circle cx="341.49" cy="302.86" r="12.35" style="fill:#fff;"></circle><circle cx="377.18" cy="302.86" r="12.35" style="fill:#fff;"></circle><circle cx="412.86" cy="302.86" r="12.35" style="fill:#fff;"></circle><circle cx="448.54" cy="302.86" r="12.35" style="fill:#fff;"></circle><circle cx="484.23" cy="302.86" r="12.35" style="fill:#fff;"></circle><circle cx="519.91" cy="302.86" r="12.35" style="fill:#fff;"></circle><circle cx="555.59" cy="302.86" r="12.35" style="fill:#fff;"></circle><circle cx="591.28" cy="302.86" r="12.35" style="fill:#fff;"></circle><circle cx="198.76" cy="336.17" r="12.35" style="fill:#fff;"></circle><circle cx="234.44" cy="336.17" r="12.35" style="fill:#fff;"></circle><circle cx="270.13" cy="336.17" r="12.35" style="fill:#fff;"></circle><circle cx="305.81" cy="336.17" r="12.35" style="fill:#fff;"></circle><circle cx="341.49" cy="336.17" r="12.35" style="fill:#fff;"></circle><circle cx="377.18" cy="336.17" r="12.35" style="fill:#fff;"></circle><circle cx="412.86" cy="336.17" r="12.35" style="fill:#fff;"></circle><circle cx="198.76" cy="369.48" r="12.35" style="fill:#fff;"></circle><circle cx="234.44" cy="369.48" r="12.35" style="fill:#fff;"></circle><circle cx="270.13" cy="369.48" r="12.35" style="fill:#fff;"></circle><circle cx="198.76" cy="402.79" r="12.35" style="fill:#fff;"></circle><circle cx="198.76" cy="436.1" r="12.35" style="fill:#fff;"></circle><circle cx="234.44" cy="402.79" r="12.35" style="fill:#fff;"></circle><circle cx="270.13" cy="402.79" r="12.35" style="fill:#fff;"></circle><circle cx="305.81" cy="369.48" r="12.35" style="fill:#fff;"></circle><circle cx="341.49" cy="369.48" r="12.35" style="fill:#fff;"></circle><circle cx="377.18" cy="369.48" r="12.35" style="fill:#fff;"></circle><circle cx="412.86" cy="369.48" r="12.35" style="fill:#fff;"></circle><circle cx="448.54" cy="336.17" r="12.35" style="fill:#fff;"></circle><circle cx="484.23" cy="336.17" r="12.35" style="fill:#fff;"></circle><circle cx="519.91" cy="336.17" r="12.35" style="fill:#fff;"></circle><circle cx="555.59" cy="336.17" r="12.35" style="fill:#fff;"></circle><circle cx="591.28" cy="336.17" r="12.35" style="fill:#fff;"></circle><circle cx="626.96" cy="302.86" r="12.35" style="fill:#fff;"></circle><circle cx="662.64" cy="302.86" r="12.35" style="fill:#fff;"></circle><circle cx="698.33" cy="302.86" r="12.35" style="fill:#fff;"></circle><circle cx="734.01" cy="302.86" r="12.35" style="fill:#fff;"></circle><circle cx="841.06" cy="430.03" r="12.35" style="fill:#fff;"></circle><circle cx="805.38" cy="430.03" r="12.35" style="fill:#fff;"></circle><circle cx="769.69" cy="430.03" r="12.35" style="fill:#fff;"></circle><circle cx="734.01" cy="430.03" r="12.35" style="fill:#fff;"></circle><circle cx="698.33" cy="430.03" r="12.35" style="fill:#fff;"></circle><circle cx="662.64" cy="430.03" r="12.35" style="fill:#fff;"></circle><circle cx="626.96" cy="430.03" r="12.35" style="fill:#fff;"></circle><circle cx="591.28" cy="430.03" r="12.35" style="fill:#fff;"></circle><circle cx="555.59" cy="430.03" r="12.35" style="fill:#fff;"></circle><circle cx="519.91" cy="430.03" r="12.35" style="fill:#fff;"></circle><circle cx="484.23" cy="430.03" r="12.35" style="fill:#fff;"></circle><circle cx="448.54" cy="430.03" r="12.35" style="fill:#fff;"></circle><circle cx="412.86" cy="430.03" r="12.35" style="fill:#fff;"></circle><circle cx="377.18" cy="430.03" r="12.35" style="fill:#fff;"></circle><circle cx="341.49" cy="430.03" r="12.35" style="fill:#fff;"></circle><circle cx="305.81" cy="430.03" r="12.35" style="fill:#fff;"></circle><circle cx="841.06" cy="400.24" r="12.35" style="fill:#fff;"></circle><circle cx="805.38" cy="400.24" r="12.35" style="fill:#fff;"></circle><circle cx="769.69" cy="400.24" r="12.35" style="fill:#fff;"></circle><circle cx="734.01" cy="400.24" r="12.35" style="fill:#fff;"></circle><circle cx="698.33" cy="400.24" r="12.35" style="fill:#fff;"></circle><circle cx="662.64" cy="400.24" r="12.35" style="fill:#fff;"></circle><circle cx="626.96" cy="400.24" r="12.35" style="fill:#fff;"></circle><circle cx="591.28" cy="400.24" r="12.35" style="fill:#fff;"></circle><circle cx="555.59" cy="400.24" r="12.35" style="fill:#fff;"></circle><circle cx="519.91" cy="400.24" r="12.35" style="fill:#fff;"></circle><circle cx="484.23" cy="400.24" r="12.35" style="fill:#fff;"></circle><circle cx="448.54" cy="400.24" r="12.35" style="fill:#fff;"></circle><circle cx="841.06" cy="366.93" r="12.35" style="fill:#fff;"></circle><circle cx="805.38" cy="366.93" r="12.35" style="fill:#fff;"></circle><circle cx="769.69" cy="366.93" r="12.35" style="fill:#fff;"></circle><circle cx="734.01" cy="366.93" r="12.35" style="fill:#fff;"></circle><circle cx="698.33" cy="366.93" r="12.35" style="fill:#fff;"></circle><circle cx="662.64" cy="366.93" r="12.35" style="fill:#fff;"></circle><circle cx="626.96" cy="366.93" r="12.35" style="fill:#fff;"></circle><circle cx="841.06" cy="333.62" r="12.35" style="fill:#fff;"></circle><circle cx="805.38" cy="333.62" r="12.35" style="fill:#fff;"></circle><circle cx="769.69" cy="333.62" r="12.35" style="fill:#fff;"></circle><circle cx="841.06" cy="300.32" r="12.35" style="fill:#fff;"></circle><circle cx="841.06" cy="267.01" r="12.35" style="fill:#fff;"></circle><circle cx="805.38" cy="300.32" r="12.35" style="fill:#fff;"></circle><circle cx="769.69" cy="300.32" r="12.35" style="fill:#fff;"></circle><circle cx="734.01" cy="333.62" r="12.35" style="fill:#fff;"></circle><circle cx="698.33" cy="333.62" r="12.35" style="fill:#fff;"></circle><circle cx="662.64" cy="333.62" r="12.35" style="fill:#fff;"></circle><circle cx="626.96" cy="333.62" r="12.35" style="fill:#fff;"></circle><circle cx="591.28" cy="366.93" r="12.35" style="fill:#fff;"></circle><circle cx="555.59" cy="366.93" r="12.35" style="fill:#fff;"></circle><circle cx="519.91" cy="366.93" r="12.35" style="fill:#fff;"></circle><circle cx="484.23" cy="366.93" r="12.35" style="fill:#fff;"></circle><circle cx="448.54" cy="366.93" r="12.35" style="fill:#fff;"></circle><circle cx="412.86" cy="400.24" r="12.35" style="fill:#fff;"></circle><circle cx="377.18" cy="400.24" r="12.35" style="fill:#fff;"></circle><circle cx="341.49" cy="400.24" r="12.35" style="fill:#fff;"></circle><circle cx="305.81" cy="400.24" r="12.35" style="fill:#fff;"></circle><circle cx="484.23" cy="532.5" r="12.35" style="fill:#fff;"></circle><circle cx="448.54" cy="532.5" r="12.35" style="fill:#fff;"></circle><circle cx="412.86" cy="532.5" r="12.35" style="fill:#fff;"></circle><circle cx="377.18" cy="532.5" r="12.35" style="fill:#fff;"></circle><circle cx="341.49" cy="532.5" r="12.35" style="fill:#fff;"></circle><circle cx="305.81" cy="532.5" r="12.35" style="fill:#fff;"></circle><circle cx="270.13" cy="532.5" r="12.35" style="fill:#fff;"></circle><circle cx="234.44" cy="532.5" r="12.35" style="fill:#fff;"></circle><circle cx="198.76" cy="532.5" r="12.35" style="fill:#fff;"></circle><circle cx="484.23" cy="502.71" r="12.35" style="fill:#fff;"></circle><circle cx="448.54" cy="502.71" r="12.35" style="fill:#fff;"></circle><circle cx="412.86" cy="502.71" r="12.35" style="fill:#fff;"></circle><circle cx="377.18" cy="502.71" r="12.35" style="fill:#fff;"></circle><circle cx="341.49" cy="502.71" r="12.35" style="fill:#fff;"></circle><circle cx="305.81" cy="502.71" r="12.35" style="fill:#fff;"></circle><circle cx="270.13" cy="502.71" r="12.35" style="fill:#fff;"></circle><circle cx="234.44" cy="502.71" r="12.35" style="fill:#fff;"></circle><circle cx="198.76" cy="502.71" r="12.35" style="fill:#fff;"></circle><circle cx="484.23" cy="469.41" r="12.35" style="fill:#fff;"></circle><circle cx="448.54" cy="469.41" r="12.35" style="fill:#fff;"></circle><circle cx="412.86" cy="469.41" r="12.35" style="fill:#fff;"></circle><circle cx="377.18" cy="469.41" r="12.35" style="fill:#fff;"></circle><circle cx="341.49" cy="469.41" r="12.35" style="fill:#fff;"></circle><circle cx="305.81" cy="469.41" r="12.35" style="fill:#fff;"></circle><circle cx="270.13" cy="469.41" r="12.35" style="fill:#fff;"></circle><circle cx="234.44" cy="469.41" r="12.35" style="fill:#fff;"></circle><circle cx="198.76" cy="469.41" r="12.35" style="fill:#fff;"></circle><circle cx="412.86" cy="568.36" r="12.35" style="fill:#fff;"></circle><circle cx="448.54" cy="568.36" r="12.35" style="fill:#fff;"></circle><circle cx="412.86" cy="598.15" r="12.35" style="fill:#fff;"></circle><circle cx="448.54" cy="598.15" r="12.35" style="fill:#fff;"></circle><circle cx="555.59" cy="725.32" r="12.35" style="fill:#fff;"></circle><circle cx="519.91" cy="725.32" r="12.35" style="fill:#fff;"></circle><circle cx="484.23" cy="725.32" r="12.35" style="fill:#fff;"></circle><circle cx="448.54" cy="725.32" r="12.35" style="fill:#fff;"></circle><circle cx="412.86" cy="725.32" r="12.35" style="fill:#fff;"></circle><circle cx="555.59" cy="695.53" r="12.35" style="fill:#fff;"></circle><circle cx="519.91" cy="695.53" r="12.35" style="fill:#fff;"></circle><circle cx="484.23" cy="695.53" r="12.35" style="fill:#fff;"></circle><circle cx="448.54" cy="695.53" r="12.35" style="fill:#fff;"></circle><circle cx="412.86" cy="695.53" r="12.35" style="fill:#fff;"></circle><circle cx="555.59" cy="662.22" r="12.35" style="fill:#fff;"></circle><circle cx="519.91" cy="662.22" r="12.35" style="fill:#fff;"></circle><circle cx="484.23" cy="662.22" r="12.35" style="fill:#fff;"></circle><circle cx="448.54" cy="662.22" r="12.35" style="fill:#fff;"></circle><circle cx="412.86" cy="662.22" r="12.35" style="fill:#fff;"></circle><circle cx="555.59" cy="628.91" r="12.35" style="fill:#fff;"></circle><circle cx="519.91" cy="628.91" r="12.35" style="fill:#fff;"></circle><circle cx="484.23" cy="628.91" r="12.35" style="fill:#fff;"></circle><circle cx="555.59" cy="595.6" r="12.35" style="fill:#fff;"></circle><circle cx="555.59" cy="562.3" r="12.35" style="fill:#fff;"></circle><circle cx="519.91" cy="595.6" r="12.35" style="fill:#fff;"></circle><circle cx="484.23" cy="595.6" r="12.35" style="fill:#fff;"></circle><circle cx="448.54" cy="628.91" r="12.35" style="fill:#fff;"></circle><circle cx="412.86" cy="628.91" r="12.35" style="fill:#fff;"></circle><circle cx="198.76" cy="564.05" r="12.35" style="fill:#fff;"></circle><circle cx="234.44" cy="564.05" r="12.35" style="fill:#fff;"></circle><circle cx="270.13" cy="564.05" r="12.35" style="fill:#fff;"></circle><circle cx="198.76" cy="593.85" r="12.35" style="fill:#fff;"></circle><circle cx="234.44" cy="593.85" r="12.35" style="fill:#fff;"></circle><circle cx="270.13" cy="593.85" r="12.35" style="fill:#fff;"></circle><circle cx="198.76" cy="627.15" r="12.35" style="fill:#fff;"></circle><circle cx="234.44" cy="627.15" r="12.35" style="fill:#fff;"></circle><circle cx="270.13" cy="627.15" r="12.35" style="fill:#fff;"></circle><circle cx="198.76" cy="660.46" r="12.35" style="fill:#fff;"></circle><circle cx="234.44" cy="660.46" r="12.35" style="fill:#fff;"></circle><circle cx="270.13" cy="660.46" r="12.35" style="fill:#fff;"></circle><circle cx="198.76" cy="693.77" r="12.35" style="fill:#fff;"></circle><circle cx="234.44" cy="693.77" r="12.35" style="fill:#fff;"></circle><circle cx="270.13" cy="693.77" r="12.35" style="fill:#fff;"></circle><circle cx="412.86" cy="755.11" r="12.35" style="fill:#fff;"></circle><circle cx="448.54" cy="755.11" r="12.35" style="fill:#fff;"></circle><circle cx="484.23" cy="755.11" r="12.35" style="fill:#fff;"></circle><circle cx="519.91" cy="755.11" r="12.35" style="fill:#fff;"></circle><circle cx="555.59" cy="755.11" r="12.35" style="fill:#fff;"></circle><circle cx="591.28" cy="755.11" r="12.35" style="fill:#fff;"></circle><circle cx="626.96" cy="755.11" r="12.35" style="fill:#fff;"></circle><circle cx="662.64" cy="755.11" r="12.35" style="fill:#fff;"></circle></svg>