<svg xmlns="http://www.w3.org/2000/svg" id="Calque_1" viewBox="406.32 304.53 385.11 385.81"><path d="M497.07,671.33c22.42-33.64,44.43-67.57,66.5-101.44,20.62-31.66,49.08-32.17,69.74-.94,22.06,33.35,43.84,66.88,65.81,100.3,16.48,25.06,41.73,27.89,62.81,7.11,5.7-5.62,11.4-11.24,16.97-16.99,18.73-19.32,16.06-45.48-6.5-60.41-34.08-22.56-68.43-44.69-102.54-67.21-30.07-19.85-30.29-48.52-.47-68.29,33.69-22.34,67.67-44.23,101.36-66.56,24.93-16.52,27.5-41.76,6.72-62.93-5.61-5.71-11.2-11.44-16.98-16.97-19.49-18.68-45.42-15.84-60.35,6.81-22.5,34.13-44.64,68.49-67.18,102.59-19.99,30.25-49.02,29.82-68.95-.71-21.85-33.49-43.65-67.01-65.72-100.35-16.54-24.98-41.97-27.82-62.7-6.64-10.43,10.66-19.55,22.6-29.26,33.96v21.35c9.93,9.69,18.77,20.94,29.99,28.76,30.56,21.29,62.15,41.09,93.27,61.56,27.26,17.94,27.4,48.19.24,66.07-32.23,21.22-65,41.64-96.63,63.71-10.42,7.27-18,18.62-26.88,28.1v18.68c11.71,13.73,22.17,28.84,35.43,40.84,16.66,15.07,41.99,9.58,55.32-10.41Z" style="fill:#fff;"></path></svg>