<svg viewBox="190.1625515947467 164.16 797.3861538461538 794.88" xmlns="http://www.w3.org/2000/svg" id="Calque_1" style="max-height: 500px" width="797.3861538461538" height="794.88"><circle style="fill:none; stroke:#fff; stroke-miterlimit:10; stroke-width:6px;" transform="translate(-224.66 579.41) rotate(-45)" r="384.87" cy="560.9" cx="587.08"/><path style="fill:none; stroke:#fff; stroke-miterlimit:10; stroke-width:6px;" d="M221.86,439.26c33.35-42.95,84.18-98.69,156.86-150.09,92.36-65.32,181.39-96.31,240.69-111.77"/><path style="fill:none; stroke:#fff; stroke-miterlimit:10; stroke-width:6px;" d="M202.21,560.9c39.1-56.51,109.89-143.49,223.59-217.21,136.81-88.71,268.44-114.57,340.59-123.39"/><path style="fill:none; stroke:#fff; stroke-miterlimit:10; stroke-width:6px;" d="M221.86,682.53c44.18-64.89,134.15-178.72,286.95-268.23,145.16-85.04,281.02-109.46,358.08-117.58"/><path style="fill:none; stroke:#fff; stroke-miterlimit:10; stroke-width:6px;" d="M281.9,795.38c38.71-58.41,94.25-128.04,172.4-193.99,181.26-152.95,377.85-196.34,477.99-210.8"/><path style="fill:none; stroke:#fff; stroke-miterlimit:10; stroke-width:6px;" d="M368.76,877.88c46.47-62.97,132.47-162.87,269.87-245.15,131.37-78.66,254.22-107.98,330.29-120.13"/><path style="fill:none; stroke:#fff; stroke-miterlimit:10; stroke-width:6px;" d="M484.3,931.85c40.04-49.56,96.55-109.28,173.19-165.68,118.02-86.85,233.38-128.73,311.43-149.92"/><path style="fill:none; stroke:#fff; stroke-miterlimit:10; stroke-width:6px;" d="M649.4,940.72c24.85-34.01,62.68-78.2,117.12-120.03,62.49-48.02,122.98-74.59,165.77-89.5"/><path style="fill:none; stroke:#fff; stroke-miterlimit:10; stroke-width:6px;" d="M383.22,234.42c26.76,89.09,68.81,199.14,136.54,316.69,89.16,154.76,190.94,267.17,271.09,342.68"/><path style="fill:none; stroke:#fff; stroke-miterlimit:10; stroke-width:6px;" d="M330.94,273.67c-.91,54.41,4.53,117.06,23,184,76.1,275.82,315.97,416.26,388.76,455.3"/><path style="fill:none; stroke:#fff; stroke-miterlimit:10; stroke-width:6px;" d="M259.26,359.18c-3.64,57.87-2.17,166.63,53.79,283.71,98.57,206.27,291.27,281.54,336.35,297.83"/><path style="fill:none; stroke:#fff; stroke-miterlimit:10; stroke-width:6px;" d="M216.81,455.72c-2.6,45.09-2.94,157.83,65.72,274.06,89.04,150.74,231.96,202.11,269.78,214.39"/><path style="fill:none; stroke:#fff; stroke-miterlimit:10; stroke-width:6px;" d="M425,211.75c70.7,74.68,156.2,179.23,233.67,316.27,74.32,131.46,119.04,253.54,146.7,349.85"/><path style="fill:none; stroke:#fff; stroke-miterlimit:10; stroke-width:6px;" d="M484.3,189.95c58.38,31.76,168.44,102.01,255.07,234.31,113.7,173.66,117.19,347.56,115.16,413.37"/><path style="fill:none; stroke:#fff; stroke-miterlimit:10; stroke-width:6px;" d="M528.96,180.71c49.12,10.27,166.19,41.89,265.17,145.56,154.85,162.18,141.02,370.38,138.16,404.93"/></svg>