<svg xmlns="http://www.w3.org/2000/svg" id="Calque_1" viewBox="150.29 116.94 846.12 846.12"><circle cx="573.35" cy="540" r="418.06" style="fill:none; stroke:#fff; stroke-miterlimit:10; stroke-width:10px;"></circle><path d="M837.75,516.42c3.56,32.5,16.8,72.63,28.3,71.88,9.96-.65,17.26-31.91,17.54-56.03.55-45.5-23.54-91.01-35.66-88.86-11.15,1.98-13.31,44.51-10.19,73.01Z" style="fill:#fff; stroke:#fff; stroke-miterlimit:10; stroke-width:10px;"></path><path d="M613.79,552.95c-1.94,36.53,15.17,78.81,31.5,78.76,16.93-.05,35.43-45.6,30.58-85.24-3.09-25.25-16.8-57.48-31.64-57.27-15.43.22-28.93,35.44-30.44,63.76Z" style="fill:#fff; stroke:#fff; stroke-miterlimit:10; stroke-width:10px;"></path><path d="M939.01,564.07c-30.86,218.62-188.89,334.36-290.01,310.39-73.16-17.34-129.46-110.88-147.42-219.69" style="fill:none; stroke:#fff; stroke-miterlimit:10; stroke-width:10px;"></path><path d="M540.6,674.32c-1.47-2.2-11.9-17.3-31.5-19.46-24-2.64-39.09,16.61-39.84,17.6" style="fill:none; stroke:#fff; stroke-miterlimit:10; stroke-width:10px;"></path></svg>